<svg xmlns="http://www.w3.org/2000/svg" viewBox="0 0 500 500"><defs><style>.cls-1{fill:#fff;}.cls-2{fill:#1dc2ff;}</style></defs><title>Logo-1</title><g id="Layer_2" data-name="Layer 2"><g id="Layer_6" data-name="Layer 6"><rect class="cls-1" width="500" height="500"/><path class="cls-2" d="M172.94,251.63,285.43,139.13a8.44,8.44,0,0,0-6-14.41h-225a8.44,8.44,0,0,0-6,14.41L161,251.63A8.44,8.44,0,0,0,172.94,251.63Z"/><path class="cls-2" d="M465.91,282.38V133.16a8.44,8.44,0,0,0-8.44-8.44H407.94a8.44,8.44,0,0,0-8.44,8.44l0,149.2a8.44,8.44,0,0,0,8.44,8.44h49.55A8.44,8.44,0,0,0,465.91,282.38Z"/></g></g></svg>